# File created by Blade
# Date/Time:  Wed Jan 21 14:28:11 2015
# Frame Rate: 120.000 fps
#------------------------------------------------------
:FULLY-SPECIFIED
:DEGREES
629
root 18.752501 35.460270 -21.543984 -170.665993 -3.949654 -178.911467
Spine -18.655287 -0.950323 1.124008
Head 7.556942 -1.959972 -0.257517
LeftShoulder -11.981141 -38.060951 23.861382
LeftArm 6.838863 8.835852 -4.207602
LeftForeArm 19.421499 -0.000000 -1.909517
LeftHand -8.011892 -0.000000 -7.824321
LeftHandThumb1 -26.253704 0.000000 33.147579
RightShoulder -11.778319 0.994161 -14.046789
RightArm 8.872613 34.480320 5.634944
RightForeArm -42.653369 0.000000 4.404128
RightHand -6.923295 -0.000000 14.903647
RightHandThumb1 -24.326973 -0.000000 -32.862282
LeftUpLeg -0.570014 8.254807 1.964532
LeftLeg -7.256138 -0.000000 0.000000
LeftFoot -19.761197 26.903310 -12.104556
LeftToeBase 27.202457 -0.000000 -0.000000
RightUpLeg -1.545492 -13.317912 0.040752
RightLeg -4.384151 -0.000000 0.000000
RightFoot -20.191742 -22.527619 16.423218
RightToeBase 25.188468 -0.000000 -0.000000
630
root 18.754890 35.460328 -21.546645 -170.658318 -3.948323 -178.907031
Spine -18.666451 -0.953020 1.122764
Head 7.576268 -1.979255 -0.264630
LeftShoulder -11.982351 -38.052669 23.858084
LeftArm 6.890763 8.852983 -4.196500
LeftForeArm 19.380004 0.000000 -1.960368
LeftHand -7.975523 -0.000000 -7.758207
LeftHandThumb1 -26.253704 0.000000 33.147579
RightShoulder -11.777809 1.043491 -14.039813
RightArm 8.834395 34.382414 5.566479
RightForeArm -42.593310 -0.000000 4.388466
RightHand -6.966964 -0.000000 14.864851
RightHandThumb1 -24.326973 -0.000000 -32.862282
LeftUpLeg -0.573395 8.254634 1.972499
LeftLeg -7.256070 -0.000000 0.000000
LeftFoot -19.772858 26.903097 -12.121897
LeftToeBase 27.239149 -0.000000 -0.000000
RightUpLeg -1.546380 -13.280814 0.046546
RightLeg -4.387957 -0.000000 0.000000
RightFoot -20.203478 -22.549326 16.457419
RightToeBase 25.178453 -0.000000 -0.000000
631
root 18.756048 35.460019 -21.549738 -170.647480 -3.954639 -178.901995
Spine -18.687298 -0.962651 1.129558
Head 7.612085 -1.979705 -0.267236
LeftShoulder -11.988656 -38.048787 23.862776
LeftArm 6.921202 8.893702 -4.186512
LeftForeArm 19.362797 0.000000 -1.959965
LeftHand -8.025858 0.000000 -7.777843
LeftHandThumb1 -26.253704 0.000000 33.147579
RightShoulder -11.783723 1.041795 -14.040704
RightArm 8.823999 34.381786 5.538138
RightForeArm -42.540685 -0.000000 4.367510
RightHand -6.914091 -0.000000 14.829665
RightHandThumb1 -24.326973 -0.000000 -32.862282
LeftUpLeg -0.580113 8.237614 1.979888
LeftLeg -7.256982 -0.000000 0.000000
LeftFoot -19.771829 26.931038 -12.104224
LeftToeBase 27.191800 -0.000000 -0.000000
RightUpLeg -1.556463 -13.284815 0.054978
RightLeg -4.379770 -0.000000 0.000000
RightFoot -20.217274 -22.540412 16.463645
RightToeBase 25.232654 -0.000000 -0.000000
632
root 18.756811 35.459836 -21.552702 -170.638057 -3.972784 -178.896824
Spine -18.704822 -0.981799 1.144828
Head 7.639717 -1.955864 -0.264187
LeftShoulder -11.992200 -38.042310 23.863408
LeftArm 6.937580 8.899604 -4.185574
LeftForeArm 19.364901 -0.000000 -1.952560
LeftHand -8.028515 -0.000000 -7.779090
LeftHandThumb1 -26.253704 0.000000 33.147579
RightShoulder -11.794544 1.053824 -14.049184
RightArm 8.811456 34.390731 5.517328
RightForeArm -42.560080 -0.000000 4.385909
RightHand -6.958170 -0.000000 14.800342
RightHandThumb1 -24.326973 -0.000000 -32.862282
LeftUpLeg -0.586725 8.209364 1.988974
LeftLeg -7.258832 -0.000000 0.000000
LeftFoot -19.782179 26.937410 -12.118276
LeftToeBase 27.192275 -0.000000 -0.000000
RightUpLeg -1.554274 -13.302613 0.065651
RightLeg -4.389812 -0.000000 0.000000
RightFoot -20.204482 -22.553802 16.456043
RightToeBase 25.196615 -0.000000 -0.000000
633
root 18.757576 35.459248 -21.556229 -170.635199 -3.969414 -178.896508
Spine -18.713925 -0.986255 1.146388
Head 7.661859 -1.942207 -0.267812
LeftShoulder -12.002316 -38.043763 23.882505
LeftArm 6.943093 8.935327 -4.190053
LeftForeArm 19.351801 -0.000000 -1.939100
LeftHand -8.031774 -0.000000 -7.772649
LeftHandThumb1 -26.253704 0.000000 33.147579
RightShoulder -11.807435 1.053483 -14.060557
RightArm 8.810787 34.383563 5.516633
RightForeArm -42.693494 0.000000 4.395073
RightHand -6.875396 -0.000000 14.866874
RightHandThumb1 -24.326973 -0.000000 -32.862282
LeftUpLeg -0.582865 8.225015 1.989924
LeftLeg -7.260689 -0.000000 0.000000
LeftFoot -19.787274 26.936540 -12.105329
LeftToeBase 27.236694 -0.000000 -0.000000
RightUpLeg -1.550706 -13.296834 0.065499
RightLeg -4.391427 -0.000000 0.000000
RightFoot -20.217897 -22.549481 16.465862
RightToeBase 25.172679 -0.000000 -0.000000
634
root 18.759181 35.458805 -21.559772 -170.632440 -3.974344 -178.893561
Spine -18.727679 -0.995596 1.152517
Head 7.695854 -1.937628 -0.282923
LeftShoulder -11.987068 -38.026241 23.871949
LeftArm 6.944461 8.954977 -4.175880
LeftForeArm 19.319673 -0.000000 -1.932219
LeftHand -8.025342 -0.000000 -7.768458
LeftHandThumb1 -26.253704 0.000000 33.147579
RightShoulder -11.812022 1.072269 -14.073182
RightArm 8.795583 34.329543 5.490044
RightForeArm -42.646855 -0.000000 4.410919
RightHand -6.904607 -0.000000 14.900532
RightHandThumb1 -24.326973 -0.000000 -32.862282
LeftUpLeg -0.578314 8.213668 1.997417
LeftLeg -7.264875 -0.000000 0.000000
LeftFoot -19.786224 26.937568 -12.118499
LeftToeBase 27.192446 -0.000000 -0.000000
RightUpLeg -1.545528 -13.294652 0.071794
RightLeg -4.392801 -0.000000 0.000000
RightFoot -20.222314 -22.548680 16.463048
RightToeBase 25.181937 -0.000000 -0.000000
635
root 18.760115 35.458368 -21.563228 -170.630991 -3.975434 -178.891260
Spine -18.735242 -1.004696 1.159475
Head 7.720413 -1.925233 -0.295253
LeftShoulder -11.994643 -38.032167 23.880837
LeftArm 6.948951 8.974477 -4.171809
LeftForeArm 19.300305 -0.000000 -1.929641
LeftHand -8.008276 -0.000000 -7.763261
LeftHandThumb1 -26.253704 0.000000 33.147579
RightShoulder -11.825654 1.067371 -14.085734
RightArm 8.801378 34.330008 5.498045
RightForeArm -42.703491 -0.000000 4.432565
RightHand -6.919795 -0.000000 14.892879
RightHandThumb1 -24.326973 -0.000000 -32.862282
LeftUpLeg -0.571404 8.211919 2.003016
LeftLeg -7.270895 -0.000000 0.000000
LeftFoot -19.788777 26.937419 -12.121127
LeftToeBase 27.212138 -0.000000 -0.000000
RightUpLeg -1.542551 -13.288938 0.074198
RightLeg -4.390114 -0.000000 0.000000
RightFoot -20.229114 -22.553701 16.453627
RightToeBase 25.207266 -0.000000 -0.000000
636
root 18.761147 35.457902 -21.566252 -170.628063 -3.980270 -178.889251
Spine -18.744053 -1.019578 1.165409
Head 7.737484 -1.910174 -0.304081
LeftShoulder -11.999833 -38.036627 23.888599
LeftArm 6.948199 9.010735 -4.163545
LeftForeArm 19.295572 0.000000 -1.914791
LeftHand -8.039203 0.000000 -7.755368
LeftHandThumb1 -26.253704 0.000000 33.147579
RightShoulder -11.853709 1.065140 -14.092601
RightArm 8.840344 34.294708 5.514886
RightForeArm -42.764440 0.000000 4.417985
RightHand -6.901641 0.000000 14.837803
RightHandThumb1 -24.326973 -0.000000 -32.862282
LeftUpLeg -0.570884 8.207367 2.008253
LeftLeg -7.266704 -0.000000 0.000000
LeftFoot -19.798911 26.931755 -12.118031
LeftToeBase 27.229165 -0.000000 -0.000000
RightUpLeg -1.536581 -13.277230 0.077653
RightLeg -4.394833 -0.000000 0.000000
RightFoot -20.243170 -22.559898 16.506817
RightToeBase 25.100054 -0.000000 -0.000000
637
root 18.761749 35.457318 -21.569202 -170.624502 -3.976580 -178.891615
Spine -18.752923 -1.032550 1.166490
Head 7.760333 -1.890616 -0.311188
LeftShoulder -12.011535 -38.002320 23.895161
LeftArm 6.958777 9.021186 -4.159534
LeftForeArm 19.255532 -0.000000 -1.919159
LeftHand -8.036052 -0.000000 -7.731294
LeftHandThumb1 -26.253704 0.000000 33.147579
RightShoulder -11.874756 1.057091 -14.107619
RightArm 8.877384 34.357608 5.565512
RightForeArm -42.863576 -0.000000 4.445395
RightHand -6.926431 -0.000000 14.800300
RightHandThumb1 -24.326973 -0.000000 -32.862282
LeftUpLeg -0.569229 8.212618 2.007635
LeftLeg -7.266512 -0.000000 0.000000
LeftFoot -19.801492 26.927285 -12.118596
LeftToeBase 27.205450 -0.000000 -0.000000
RightUpLeg -1.535249 -13.260217 0.074273
RightLeg -4.395413 -0.000000 0.000000
RightFoot -20.261254 -22.583731 16.474328
RightToeBase 25.264596 -0.000000 -0.000000
